<?xml version="1.0" standalone="no" ?>
<!DOCTYPE svg PUBLIC "-//W3C//DTD SVG 1.1//EN" "http://www.w3.org/Graphics/SVG/1.1/DTD/svg11.dtd">
<svg width="410px" height="319px" viewBox="0 0 410 319" style="background-color: #ffffff00" xmlns="http://www.w3.org/2000/svg" xmlns:xlink="http://www.w3.org/1999/xlink" version="1.1" >
<text x="0" y="0" stroke="none" fill="#000000" transform="matrix(0.0833333 0 0 0.0833333 60.8656 45.1983)" font-style="normal" font-weight="normal" font-size="280px" font-family="Arial" >
A</text>
<text x="0" y="0" stroke="none" fill="#000000" transform="matrix(0.0833333 0 0 0.0833333 76.449 50.115)" font-style="normal" font-weight="normal" font-size="210px" font-family="Arial" >
(g)</text>
<text x="0" y="0" stroke="none" fill="#000000" transform="matrix(0.0833333 0 0 0.0833333 304.866 45.6189)" font-style="normal" font-weight="normal" font-size="280px" font-family="Arial" >
A</text>
<text x="0" y="0" stroke="none" fill="#000000" transform="matrix(0.0833333 0 0 0.0833333 320.449 50.5355)" font-style="normal" font-weight="normal" font-size="210px" font-family="Arial" >
(g)</text>
<text x="0" y="0" stroke="none" fill="#000000" transform="matrix(0.0833333 0 0 0.0833333 145.924 44.348)" font-style="italic" font-weight="normal" font-size="200px" font-family="Arial" >
e</text>
<path stroke="none" fill="#000000" transform="matrix(0.0833333 0 0 0.0833333 -248.167 -223.417)" d="M 4854.95,3068.18 L 4933.62,3068.18 L 4933.62,3078.18 L 4854.95,3078.18 Z " />
<text x="0" y="0" stroke="none" fill="#000000" transform="matrix(0.0833333 0 0 0.0833333 118.56 43.865)" font-style="normal" font-weight="normal" font-size="200px" font-family="Arial" >
+</text>
<text x="0" y="0" stroke="none" fill="#000000" transform="matrix(0.0833333 0 0 0.0833333 55.9906 178.532)" font-style="normal" font-weight="normal" font-size="280px" font-family="Arial" >
A</text>
<text x="0" y="0" stroke="none" fill="#000000" transform="matrix(0.0833333 0 0 0.0833333 71.574 183.448)" font-style="normal" font-weight="normal" font-size="210px" font-family="Arial" >
(aq)</text>
<text x="0" y="0" stroke="none" fill="#000000" transform="matrix(0.0833333 0 0 0.0833333 299.991 178.952)" font-style="normal" font-weight="normal" font-size="280px" font-family="Arial" >
A</text>
<text x="0" y="0" stroke="none" fill="#000000" transform="matrix(0.0833333 0 0 0.0833333 315.574 183.869)" font-style="normal" font-weight="normal" font-size="210px" font-family="Arial" >
(aq)</text>
<path stroke="none" fill="#000000" transform="matrix(0.0833333 0 0 0.0833333 -248.167 -223.417)" d="M 6772.38,4586.43 L 6853.78,4586.43 L 6853.78,4598.43 L 6772.38,4598.43 Z " />
<text x="0" y="0" stroke="none" fill="#000000" transform="matrix(0.0833333 0 0 0.0833333 145.924 177.681)" font-style="italic" font-weight="normal" font-size="200px" font-family="Arial" >
e</text>
<path stroke="none" fill="#000000" transform="matrix(0.0833333 0 0 0.0833333 -248.167 -223.417)" d="M 4854.95,4668.18 L 4933.62,4668.18 L 4933.62,4678.18 L 4854.95,4678.18 Z " />
<text x="0" y="0" stroke="none" fill="#000000" transform="matrix(0.0833333 0 0 0.0833333 118.56 177.198)" font-style="normal" font-weight="normal" font-size="200px" font-family="Arial" >
+</text>
<text x="0" y="0" stroke="none" fill="#000000" transform="matrix(0.0833333 0 0 0.0833333 215.102 25.25)" font-style="normal" font-weight="normal" font-size="200px" font-family="Symbol" >
D</text>
<text x="0" y="0" stroke="none" fill="#000000" transform="matrix(0.0833333 0 0 0.0833333 225.299 25.25)" font-style="normal" font-weight="normal" font-size="200px" font-family="Arial" >
G</text>
<text x="0" y="0" stroke="none" fill="#000000" transform="matrix(0.0833333 0 0 0.0833333 238.435 29.9167)" font-style="normal" font-weight="normal" font-size="120px" font-family="Arial" >
g</text>
<text x="0" y="0" stroke="none" fill="#000000" transform="matrix(0.0833333 0 0 0.0833333 238.435 12.5833)" font-style="normal" font-weight="normal" font-size="120px" font-family="Arial" >
red</text>
<path stroke="none" fill="#000000" transform="matrix(0.0833333 0 0 0.0833333 -248.167 -223.417)" d="M 6234.32,3154.88 L 5138.22,3154.88 L 5138.22,3139.88 L 6234.32,3139.88 Z " />
<path stroke="none" fill="#000000" transform="matrix(0.0833333 0 0 0.0833333 -248.167 -223.417)" d="M 6434.22,3147.38 C 6434.22,3147.38 6204.62,3205.78 6204.62,3205.78 C 6204.62,3205.78 6233.32,3172.93 6233.32,3147.38 C 6233.32,3121.39 6204.62,3087.98 6204.62,3087.98 C 6204.62,3087.98 6434.22,3147.38 6434.22,3147.38 C 6434.22,3147.38 6434.22,3147.38 6434.22,3147.38 " />
<path stroke="#000000" stroke-width="1" fill="none" transform="matrix(0.0833333 0 0 0.0833333 -248.167 -223.417)" d="M 6434.22,3147.38 C 6434.22,3147.38 6204.62,3205.78 6204.62,3205.78 C 6204.62,3205.78 6233.32,3172.93 6233.32,3147.38 C 6233.32,3121.39 6204.62,3087.98 6204.62,3087.98 C 6204.62,3087.98 6434.22,3147.38 6434.22,3147.38 C 6434.22,3147.38 6434.22,3147.38 6434.22,3147.38 " />
<text x="0" y="0" stroke="none" fill="#000000" transform="matrix(0.0833333 0 0 0.0833333 215.102 158.583)" font-style="normal" font-weight="normal" font-size="200px" font-family="Symbol" >
D</text>
<text x="0" y="0" stroke="none" fill="#000000" transform="matrix(0.0833333 0 0 0.0833333 225.299 158.583)" font-style="normal" font-weight="normal" font-size="200px" font-family="Arial" >
G</text>
<text x="0" y="0" stroke="none" fill="#000000" transform="matrix(0.0833333 0 0 0.0833333 238.435 163.25)" font-style="normal" font-weight="normal" font-size="120px" font-family="Arial" >
sln</text>
<text x="0" y="0" stroke="none" fill="#000000" transform="matrix(0.0833333 0 0 0.0833333 238.435 145.917)" font-style="normal" font-weight="normal" font-size="120px" font-family="Arial" >
red</text>
<path stroke="none" fill="#000000" transform="matrix(0.0833333 0 0 0.0833333 -248.167 -223.417)" d="M 6234.24,4754.88 L 5138.22,4754.88 L 5138.22,4739.88 L 6234.24,4739.88 Z " />
<path stroke="none" fill="#000000" transform="matrix(0.0833333 0 0 0.0833333 -248.167 -223.417)" d="M 6434.22,4747.38 C 6434.22,4747.38 6204.62,4805.78 6204.62,4805.78 C 6204.62,4805.78 6233.24,4772.94 6233.24,4747.38 C 6233.24,4721.38 6204.62,4687.98 6204.62,4687.98 C 6204.62,4687.98 6434.22,4747.38 6434.22,4747.38 C 6434.22,4747.38 6434.22,4747.38 6434.22,4747.38 " />
<path stroke="#000000" stroke-width="1" fill="none" transform="matrix(0.0833333 0 0 0.0833333 -248.167 -223.417)" d="M 6434.22,4747.38 C 6434.22,4747.38 6204.62,4805.78 6204.62,4805.78 C 6204.62,4805.78 6233.24,4772.94 6233.24,4747.38 C 6233.24,4721.38 6204.62,4687.98 6204.62,4687.98 C 6204.62,4687.98 6434.22,4747.38 6434.22,4747.38 C 6434.22,4747.38 6434.22,4747.38 6434.22,4747.38 " />
<path stroke="none" fill="#000000" transform="matrix(0.0833333 0 0 0.0833333 -248.167 -223.417)" d="M 3926.89,4300.02 L 3926.89,3493.13 L 3941.89,3493.13 L 3941.89,4300.02 Z " />
<path stroke="none" fill="#000000" transform="matrix(0.0833333 0 0 0.0833333 -248.167 -223.417)" d="M 3934.39,4500 C 3934.39,4500 3874.99,4270.39 3874.99,4270.39 C 3874.99,4270.39 3908.39,4299.02 3934.39,4299.02 C 3959.95,4299.02 3992.79,4270.39 3992.79,4270.39 C 3992.79,4270.39 3934.39,4500 3934.39,4500 C 3934.39,4500 3934.39,4500 3934.39,4500 " />
<path stroke="#000000" stroke-width="1" fill="none" transform="matrix(0.0833333 0 0 0.0833333 -248.167 -223.417)" d="M 3934.39,4500 C 3934.39,4500 3874.99,4270.39 3874.99,4270.39 C 3874.99,4270.39 3908.39,4299.02 3934.39,4299.02 C 3959.95,4299.02 3992.79,4270.39 3992.79,4270.39 C 3992.79,4270.39 3934.39,4500 3934.39,4500 C 3934.39,4500 3934.39,4500 3934.39,4500 " />
<path stroke="none" fill="#000000" transform="matrix(0.0833333 0 0 0.0833333 -248.167 -223.417)" d="M 4823.86,4276.02 L 4823.86,3469.13 L 4838.86,3469.13 L 4838.86,4276.02 Z " />
<path stroke="none" fill="#000000" transform="matrix(0.0833333 0 0 0.0833333 -248.167 -223.417)" d="M 4831.36,4476 C 4831.36,4476 4771.95,4246.39 4771.95,4246.39 C 4771.95,4246.39 4805.36,4275.02 4831.36,4275.02 C 4856.92,4275.02 4889.76,4246.39 4889.76,4246.39 C 4889.76,4246.39 4831.36,4476 4831.36,4476 C 4831.36,4476 4831.36,4476 4831.36,4476 " />
<path stroke="#000000" stroke-width="1" fill="none" transform="matrix(0.0833333 0 0 0.0833333 -248.167 -223.417)" d="M 4831.36,4476 C 4831.36,4476 4771.95,4246.39 4771.95,4246.39 C 4771.95,4246.39 4805.36,4275.02 4831.36,4275.02 C 4856.92,4275.02 4889.76,4246.39 4889.76,4246.39 C 4889.76,4246.39 4831.36,4476 4831.36,4476 C 4831.36,4476 4831.36,4476 4831.36,4476 " />
<path stroke="none" fill="#000000" transform="matrix(0.0833333 0 0 0.0833333 -248.167 -223.417)" d="M 6854.89,4228.02 L 6854.89,3421.13 L 6869.89,3421.13 L 6869.89,4228.02 Z " />
<path stroke="none" fill="#000000" transform="matrix(0.0833333 0 0 0.0833333 -248.167 -223.417)" d="M 6862.39,4428 C 6862.39,4428 6802.99,4198.39 6802.99,4198.39 C 6802.99,4198.39 6836.39,4227.02 6862.39,4227.02 C 6887.95,4227.02 6920.79,4198.39 6920.79,4198.39 C 6920.79,4198.39 6862.39,4428 6862.39,4428 C 6862.39,4428 6862.39,4428 6862.39,4428 " />
<path stroke="#000000" stroke-width="1" fill="none" transform="matrix(0.0833333 0 0 0.0833333 -248.167 -223.417)" d="M 6862.39,4428 C 6862.39,4428 6802.99,4198.39 6802.99,4198.39 C 6802.99,4198.39 6836.39,4227.02 6862.39,4227.02 C 6887.95,4227.02 6920.79,4198.39 6920.79,4198.39 C 6920.79,4198.39 6862.39,4428 6862.39,4428 C 6862.39,4428 6862.39,4428 6862.39,4428 " />
<text x="0" y="0" stroke="none" fill="#494949" transform="matrix(0.0833333 0 0 0.0833333 161.56 104.5)" font-style="normal" font-weight="normal" font-size="200px" font-family="Symbol" >
D</text>
<text x="0" y="0" stroke="none" fill="#494949" transform="matrix(0.0833333 0 0 0.0833333 171.757 104.5)" font-style="normal" font-weight="normal" font-size="200px" font-family="Arial" >
G=0</text>
<text x="0" y="0" stroke="none" fill="#000000" transform="matrix(0.0833333 0 0 0.0833333 3.56036 102.75)" font-style="normal" font-weight="normal" font-size="200px" font-family="Symbol" >
D</text>
<text x="0" y="0" stroke="none" fill="#000000" transform="matrix(0.0833333 0 0 0.0833333 13.7573 102.75)" font-style="normal" font-weight="normal" font-size="200px" font-family="Arial" >
G</text>
<text x="0" y="0" stroke="none" fill="#000000" transform="matrix(0.0833333 0 0 0.0833333 26.8937 107.417)" font-style="normal" font-weight="normal" font-size="120px" font-family="Arial" >
solv</text>
<text x="0" y="0" stroke="none" fill="#000000" transform="matrix(0.0833333 0 0 0.0833333 46.2271 100.917)" font-style="normal" font-weight="normal" font-size="200px" font-family="Arial" >
(A)</text>
<text x="0" y="0" stroke="none" fill="#000000" transform="matrix(0.0833333 0 0 0.0833333 331.56 102.75)" font-style="normal" font-weight="normal" font-size="200px" font-family="Symbol" >
D</text>
<text x="0" y="0" stroke="none" fill="#000000" transform="matrix(0.0833333 0 0 0.0833333 341.757 102.75)" font-style="normal" font-weight="normal" font-size="200px" font-family="Arial" >
G</text>
<text x="0" y="0" stroke="none" fill="#000000" transform="matrix(0.0833333 0 0 0.0833333 354.894 107.417)" font-style="normal" font-weight="normal" font-size="120px" font-family="Arial" >
solv</text>
<text x="0" y="0" stroke="none" fill="#000000" transform="matrix(0.0833333 0 0 0.0833333 374.227 101.758)" font-style="normal" font-weight="normal" font-size="200px" font-family="Arial" >
(A</text>
<path stroke="none" fill="#000000" transform="matrix(0.0833333 0 0 0.0833333 -248.167 -223.417)" d="M 7664.58,3717.6 L 7743.25,3717.6 L 7743.25,3727.6 L 7664.58,3727.6 Z " />
<text x="0" y="0" stroke="none" fill="#000000" transform="matrix(0.0833333 0 0 0.0833333 400.227 100.917)" font-style="normal" font-weight="normal" font-size="200px" font-family="Arial" >
)</text>
<path stroke="none" fill="#000000" transform="matrix(0.0833333 0 0 0.0833333 -248.167 -223.417)" d="M 6809.18,2949.59 L 6890.59,2949.59 L 6890.59,2961.59 L 6809.18,2961.59 Z " />
<text x="0" y="0" stroke="none" fill="#000000" transform="matrix(0.0833333 0 0 0.0833333 39.6479 289.458)" font-style="normal" font-weight="normal" font-size="200px" font-family="Symbol" >
D</text>
<text x="0" y="0" stroke="none" fill="#000000" transform="matrix(0.0833333 0 0 0.0833333 49.8449 289.458)" font-style="normal" font-weight="normal" font-size="200px" font-family="Arial" >
G</text>
<text x="0" y="0" stroke="none" fill="#000000" transform="matrix(0.0833333 0 0 0.0833333 62.9813 294.125)" font-style="normal" font-weight="normal" font-size="120px" font-family="Arial" >
sln</text>
<text x="0" y="0" stroke="none" fill="#000000" transform="matrix(0.0833333 0 0 0.0833333 62.9812 276.792)" font-style="normal" font-weight="normal" font-size="120px" font-family="Arial" >
red</text>
<text x="0" y="0" stroke="none" fill="#000000" transform="matrix(0.0833333 0 0 0.0833333 91.3361 287.625)" font-style="normal" font-weight="normal" font-size="200px" font-family="Arial" >
=</text>
<text x="0" y="0" stroke="none" fill="#000000" transform="matrix(0.0833333 0 0 0.0833333 304.773 287.042)" font-style="normal" font-weight="normal" font-size="200px" font-family="Symbol" >
D</text>
<text x="0" y="0" stroke="none" fill="#000000" transform="matrix(0.0833333 0 0 0.0833333 314.97 287.042)" font-style="normal" font-weight="normal" font-size="200px" font-family="Arial" >
G</text>
<text x="0" y="0" stroke="none" fill="#000000" transform="matrix(0.0833333 0 0 0.0833333 328.106 291.708)" font-style="normal" font-weight="normal" font-size="120px" font-family="Arial" >
solv</text>
<text x="0" y="0" stroke="none" fill="#000000" transform="matrix(0.0833333 0 0 0.0833333 347.44 285.208)" font-style="normal" font-weight="normal" font-size="200px" font-family="Arial" >
(A)</text>
<text x="0" y="0" stroke="none" fill="#000000" transform="matrix(0.0833333 0 0 0.0833333 191.649 287.042)" font-style="normal" font-weight="normal" font-size="200px" font-family="Symbol" >
D</text>
<text x="0" y="0" stroke="none" fill="#000000" transform="matrix(0.0833333 0 0 0.0833333 201.846 287.042)" font-style="normal" font-weight="normal" font-size="200px" font-family="Arial" >
G</text>
<text x="0" y="0" stroke="none" fill="#000000" transform="matrix(0.0833333 0 0 0.0833333 214.982 291.708)" font-style="normal" font-weight="normal" font-size="120px" font-family="Arial" >
solv</text>
<text x="0" y="0" stroke="none" fill="#000000" transform="matrix(0.0833333 0 0 0.0833333 234.315 286.049)" font-style="normal" font-weight="normal" font-size="200px" font-family="Arial" >
(A</text>
<path stroke="none" fill="#000000" transform="matrix(0.0833333 0 0 0.0833333 -248.167 -223.417)" d="M 5985.64,5929.1 L 6064.31,5929.1 L 6064.31,5939.1 L 5985.64,5939.1 Z " />
<text x="0" y="0" stroke="none" fill="#000000" transform="matrix(0.0833333 0 0 0.0833333 260.315 285.208)" font-style="normal" font-weight="normal" font-size="200px" font-family="Arial" >
)</text>
<path stroke="none" fill="#000000" transform="matrix(0.0833333 0 0 0.0833333 -248.167 -223.417)" d="M 6359.04,6062.5 L 6445.02,6062.5 L 6445.02,6074.5 L 6359.04,6074.5 Z " />
<path stroke="none" fill="#000000" transform="matrix(0.0833333 0 0 0.0833333 -248.167 -223.417)" d="M 5001.55,6062.5 L 5087.52,6062.5 L 5087.52,6074.5 L 5001.55,6074.5 Z " />
<path stroke="none" fill="#000000" transform="matrix(0.0833333 0 0 0.0833333 -248.167 -223.417)" d="M 5050.54,6025.51 L 5050.54,6111.49 L 5038.54,6111.49 L 5038.54,6025.51 Z " />
<text x="0" y="0" stroke="none" fill="#000000" transform="matrix(0.0833333 0 0 0.0833333 114.941 289.458)" font-style="normal" font-weight="normal" font-size="200px" font-family="Symbol" >
D</text>
<text x="0" y="0" stroke="none" fill="#000000" transform="matrix(0.0833333 0 0 0.0833333 125.138 289.458)" font-style="normal" font-weight="normal" font-size="200px" font-family="Arial" >
G</text>
<text x="0" y="0" stroke="none" fill="#000000" transform="matrix(0.0833333 0 0 0.0833333 138.274 294.125)" font-style="normal" font-weight="normal" font-size="120px" font-family="Arial" >
g</text>
<text x="0" y="0" stroke="none" fill="#000000" transform="matrix(0.0833333 0 0 0.0833333 138.274 276.792)" font-style="normal" font-weight="normal" font-size="120px" font-family="Arial" >
red</text>
<path stroke="#000000" stroke-width="12" fill="none" transform="matrix(0.0833333 0 0 0.0833333 -248.167 -223.417)" stroke-dasharray="50" d="M 3026.46,6384 C 3026.46,6384 3026.46,5759 3026.46,5759 C 3026.46,5719.26 3058.71,5687 3098.46,5687 C 3098.46,5687 7771.46,5687 7771.46,5687 C 7811.2,5687 7843.46,5719.26 7843.46,5759 C 7843.46,5759 7843.46,6384 7843.46,6384 C 7843.46,6423.74 7811.2,6456 7771.46,6456 C 7771.46,6456 3098.46,6456 3098.46,6456 C 3058.71,6456 3026.46,6423.74 3026.46,6384 " />
</svg>
